HIERARCHY
ROOT Hips
{
	OFFSET 0.000000 0.000000 0.000000
	CHANNELS 6 Xposition Yposition Zposition Zrotation Yrotation Xrotation 
	JOINT LHipJoint
	{
		OFFSET 0.000000 0.000000 0.000000
		CHANNELS 3 Zrotation Yrotation Xrotation
		JOINT LeftUpLeg
		{
			OFFSET 1.363060 -1.794630 0.839290
			CHANNELS 3 Zrotation Yrotation Xrotation
			JOINT LeftLeg
			{
				OFFSET 2.448110 -6.726130 0.000000
				CHANNELS 3 Zrotation Yrotation Xrotation
				JOINT LeftFoot
				{
					OFFSET 2.562200 -7.039590 0.000000
					CHANNELS 3 Zrotation Yrotation Xrotation
					JOINT LeftToeBase
					{
						OFFSET 0.157640 -0.433110 2.322550
						CHANNELS 3 Zrotation Yrotation Xrotation
						End Site
						{
							OFFSET 0.000000 0.000000 0.000000
						}
					}
				}
			}
		}
	}
	JOINT RHipJoint
	{
		OFFSET 0.000000 0.000000 0.000000
		CHANNELS 3 Zrotation Yrotation Xrotation
		JOINT RightUpLeg
		{
			OFFSET -1.305520 -1.794630 0.839290
			CHANNELS 3 Zrotation Yrotation Xrotation
			JOINT RightLeg
			{
				OFFSET -2.542530 -6.985550 0.000000
				CHANNELS 3 Zrotation Yrotation Xrotation
				JOINT RightFoot
				{
					OFFSET -2.568260 -7.056230 0.000000
					CHANNELS 3 Zrotation Yrotation Xrotation
					JOINT RightToeBase
					{
						OFFSET -0.164730 -0.452590 2.363150
						CHANNELS 3 Zrotation Yrotation Xrotation
						End Site
						{
							OFFSET 0.000000 0.000000 0.000000
						}
					}
				}
			}
		}
	}
	JOINT LowerBack
	{
		OFFSET 0.000000 0.000000 0.000000
		CHANNELS 3 Zrotation Yrotation Xrotation
		JOINT Spine
		{
			OFFSET 0.028270 2.035590 -0.193380
			CHANNELS 3 Zrotation Yrotation Xrotation
			JOINT Spine1
			{
				OFFSET 0.056720 2.048850 -0.042750
				CHANNELS 3 Zrotation Yrotation Xrotation
				JOINT Neck
				{
					OFFSET 0.000000 0.000000 0.000000
					CHANNELS 3 Zrotation Yrotation Xrotation
					JOINT Neck1
					{
						OFFSET -0.054170 1.746240 0.172020
						CHANNELS 3 Zrotation Yrotation Xrotation
						JOINT Head
						{
							OFFSET 0.104070 1.761360 -0.123970
							CHANNELS 3 Zrotation Yrotation Xrotation
							End Site
							{
								OFFSET 0.000000 0.000000 0.000000
							}
						}
					}
				}
				JOINT LeftShoulder
				{
					OFFSET 0.000000 0.000000 0.000000
					CHANNELS 3 Zrotation Yrotation Xrotation
					JOINT LeftArm
					{
						OFFSET 3.362410 1.200890 -0.311210
						CHANNELS 3 Zrotation Yrotation Xrotation
						JOINT LeftForeArm
						{
							OFFSET 4.983000 -0.000000 -0.000000
							CHANNELS 3 Zrotation Yrotation Xrotation
							JOINT LeftHand
							{
								OFFSET 3.483560 -0.000000 -0.000000
								CHANNELS 3 Zrotation Yrotation Xrotation
								JOINT LeftFingerBase
								{
									OFFSET 0.000000 0.000000 0.000000
									CHANNELS 3 Zrotation Yrotation Xrotation
									JOINT LeftHandIndex1
									{
										OFFSET 0.715260 -0.000000 -0.000000
										CHANNELS 3 Zrotation Yrotation Xrotation
										End Site
										{
											OFFSET 0.000000 0.000000 0.000000
										}
									}
								}
								JOINT LThumb
								{
									OFFSET 0.000000 0.000000 0.000000
									CHANNELS 3 Zrotation Yrotation Xrotation
									End Site
									{
										OFFSET 0.000000 0.000000 0.000000
									}
								}
							}
						}
					}
				}
				JOINT RightShoulder
				{
					OFFSET 0.000000 0.000000 0.000000
					CHANNELS 3 Zrotation Yrotation Xrotation
					JOINT RightArm
					{
						OFFSET -3.136600 1.374050 -0.404650
						CHANNELS 3 Zrotation Yrotation Xrotation
						JOINT RightForeArm
						{
							OFFSET -5.241900 -0.000000 -0.000000
							CHANNELS 3 Zrotation Yrotation Xrotation
							JOINT RightHand
							{
								OFFSET -3.444170 -0.000000 -0.000000
								CHANNELS 3 Zrotation Yrotation Xrotation
								JOINT RightFingerBase
								{
									OFFSET 0.000000 0.000000 0.000000
									CHANNELS 3 Zrotation Yrotation Xrotation
									JOINT RightHandIndex1
									{
										OFFSET -0.622530 -0.000000 -0.000000
										CHANNELS 3 Zrotation Yrotation Xrotation
										End Site
										{
											OFFSET 0.000000 0.000000 0.000000
										}
									}
								}
								JOINT RThumb
								{
									OFFSET 0.000000 0.000000 0.000000
									CHANNELS 3 Zrotation Yrotation Xrotation
									End Site
									{
										OFFSET 0.000000 0.000000 0.000000
									}
								}
							}
						}
					}
				}
			}
		}
	}
}
MOTION
Frames: 11
Frame Time: 0.008333
8.119005 17.384429 -38.125195 -1.161631 -2.156856 8.201759 0.532511 -1.338176 -1.657590 -13.855746 2.050347 -32.584251 6.716889 17.957342 52.980617 -3.301173 11.291590 -0.000898 0.323700 -3.656900 -10.113400 0.894654 0.023834 0.334325 20.329523 7.568777 -15.892451 0.592991 -9.962782 28.353164 -2.222527 3.968531 -1.267745 -0.353700 3.821000 -10.573600 -0.065831 1.067646 -0.414251 0.965272 1.115027 -5.269259 4.176758 0.762226 4.692433 -10.324208 -4.116471 -16.986031 5.799043 -2.998605 6.631701 6.076900 -1.686700 10.239600 -0.915929 -6.723762 -0.953635 -83.328643 11.222419 44.434420 11.940989 -21.787606 -3.329437 0.388150 0.913970 -2.620410 6.278101 -21.512851 -2.240700 -7.125000 0.000000 0.000000 -14.412100 8.008500 12.682400 -0.442862 8.311681 0.882874 70.947782 -2.050329 41.083719 -26.296137 32.696285 -10.788216 2.463590 2.813730 -24.277627 -31.844322 -23.360189 16.173000 7.125000 0.000000 0.000000 -6.802700 -58.724300 2.289200 
8.119990 17.389242 -37.934417 -1.380526 -2.671316 8.273414 0.552932 -1.438940 -1.822405 -13.646273 2.387070 -33.546926 6.110941 17.680524 51.197189 -3.014313 10.549304 0.463878 0.484200 -4.462100 -12.380500 0.939218 -0.040703 0.465997 20.573397 7.967168 -14.989134 0.666044 -9.785119 27.963421 -2.159014 3.727236 -1.816090 -0.452900 4.317200 -11.970800 0.075372 1.341811 -0.280964 0.932893 1.458254 -5.299780 4.106190 0.976827 4.377708 -10.382099 -4.201504 -16.674718 5.851053 -3.112049 6.553975 6.132100 -1.741800 10.167100 -0.882713 -6.704606 -0.979896 -83.319738 12.424016 44.556758 12.290454 -22.257130 -3.467490 0.373422 0.859069 -3.019738 6.243828 -21.119335 -2.189000 -7.125000 0.000000 0.000000 -14.431300 8.448800 12.570600 -0.516245 8.370676 0.902138 70.884031 -1.819119 41.248175 -27.116005 33.318902 -11.267386 2.455595 2.730067 -24.400676 -32.106509 -22.791219 15.921800 7.125000 0.000000 0.000000 -7.157800 -58.062300 2.295500 
8.119990 17.409480 -37.739591 -1.167816 -3.203215 8.333781 0.517031 -1.548738 -1.996828 -13.808126 2.609189 -34.341349 5.401993 17.323288 49.119662 -2.995200 10.523718 0.891979 0.367600 -3.894500 -10.779900 1.021185 -0.112382 0.601209 20.306230 8.280550 -13.999022 0.774955 -9.528063 27.350668 -2.144609 3.565548 -2.344736 -0.456700 4.335400 -12.022200 -0.263702 1.593257 -0.374214 0.876693 1.784997 -5.263343 4.149295 1.163027 4.515525 -10.480384 -4.305351 -16.576759 5.800788 -3.237253 6.445270 6.116800 -1.799200 10.043000 -0.854390 -6.629462 -0.976451 -83.188986 13.372182 44.902348 12.748121 -22.911242 -3.661767 0.362013 0.782568 -3.727311 5.975743 -20.650857 -2.039900 -7.125000 0.000000 0.000000 -14.602200 9.004100 12.563100 -0.568243 8.349789 0.943863 70.684930 -1.201214 41.474010 -27.858091 33.868778 -11.681677 2.435468 2.600720 -24.773837 -32.236284 -21.565326 15.159900 7.125000 0.000000 0.000000 -7.386800 -56.577000 2.104500 
8.127757 17.419872 -37.545641 -1.212316 -3.659830 8.397848 0.487623 -1.664146 -2.178721 -13.632919 2.598600 -35.009910 4.684841 16.924732 46.981024 -2.889410 10.294483 1.193063 0.215400 -2.987500 -8.244100 1.085121 -0.180559 0.747679 20.300407 8.407649 -13.079982 0.893779 -9.260591 26.712271 -2.216877 3.740957 -2.609897 -0.422100 4.169900 -11.555100 -0.264473 1.851691 -0.396104 0.842598 2.109221 -5.242806 4.069303 1.351968 4.630193 -10.252518 -4.297062 -16.742042 5.677005 -3.289598 6.466938 5.948000 -1.816600 10.087200 -0.781241 -6.578262 -0.994448 -83.004731 14.272769 45.289374 13.073984 -23.391176 -3.806122 0.332969 0.756184 -4.358999 6.080710 -20.656470 -2.084600 -7.125000 0.000000 0.000000 -14.523300 9.017300 12.486400 -0.580227 8.325188 0.953680 70.438294 -0.733322 41.613798 -28.721599 34.528103 -12.235084 2.400026 2.594239 -25.020332 -32.317806 -21.539776 15.173100 7.125000 0.000000 0.000000 -7.450300 -56.561600 2.119900 
8.133226 17.427092 -37.350269 -1.413938 -4.033585 8.531707 0.459649 -1.780959 -2.366146 -13.213873 2.515725 -35.602471 3.945184 16.459400 44.678355 -2.836961 10.218766 1.532900 0.146200 -2.464000 -6.790000 1.143357 -0.245351 0.890333 20.457729 8.633652 -12.148799 1.037115 -8.964543 25.995886 -2.165093 3.620119 -2.469419 -0.461800 4.359200 -12.089500 -0.152093 2.082393 -0.469581 0.827784 2.389615 -5.234686 4.038196 1.519473 4.715402 -10.062603 -4.261938 -16.899645 5.671501 -3.288998 6.503737 5.873900 -1.801100 10.149000 -0.710017 -6.520486 -1.019668 -82.843894 15.198056 45.563315 13.361800 -23.829872 -3.941423 0.292780 0.758056 -4.987221 6.398072 -20.990062 -2.246100 -7.125000 0.000000 0.000000 -14.301600 8.665300 12.386400 -0.589667 8.314959 0.965413 70.140393 -0.275464 41.748332 -29.576388 35.170150 -12.816862 2.370292 2.637583 -25.066883 -32.462010 -22.075062 15.597700 7.125000 0.000000 0.000000 -7.551300 -57.249400 2.274500 
8.133007 17.432452 -37.152818 -1.503451 -4.397417 8.574558 0.410146 -1.880150 -2.545056 -12.897615 2.599314 -36.087744 3.217545 15.937757 42.308365 -2.952470 10.572566 2.088201 0.106400 -2.103100 -5.790600 1.206005 -0.331824 1.032787 20.535835 9.003463 -11.014589 1.182777 -8.650160 25.230699 -2.013657 3.137706 -2.645427 -0.503800 4.550000 -12.629300 -0.201102 2.247206 -0.517366 0.822617 2.589530 -5.197483 4.225884 1.634530 4.894493 -10.349716 -4.379335 -16.915140 5.754406 -3.352876 6.391235 6.003800 -1.827000 10.072300 -0.694036 -6.441340 -1.027205 -82.871201 16.049561 45.522480 13.651146 -24.293284 -4.091158 0.259719 0.768772 -5.691048 6.563325 -21.534868 -2.372600 -7.125000 0.000000 0.000000 -14.179700 8.111400 12.434300 -0.591247 8.321494 1.031849 69.479979 0.724431 42.454524 -29.891652 35.358126 -13.015788 2.356835 2.695533 -25.686619 -32.579770 -22.252525 15.793000 7.125000 0.000000 0.000000 -7.702400 -57.500700 2.367200 
8.139352 17.428404 -36.950882 -1.583721 -4.674944 8.528422 0.341249 -1.973788 -2.718918 -12.734593 2.760957 -36.522884 2.534990 15.384130 39.918781 -3.428997 11.809933 2.838634 0.156400 -2.548100 -7.022900 1.267365 -0.426092 1.209021 20.588493 9.028912 -9.913125 1.313506 -8.338053 24.481518 -1.965428 2.938788 -2.995740 -0.541600 4.715200 -13.098100 -0.157959 2.370223 -0.446088 0.812936 2.734059 -5.175615 4.322415 1.729276 4.952785 -10.670820 -4.532266 -16.902353 5.815598 -3.457979 6.320381 6.143700 -1.883900 10.057200 -0.672489 -6.376317 -1.046374 -82.883858 17.149079 45.594088 14.151468 -24.985659 -4.332100 0.225314 0.752356 -6.539875 6.741373 -21.864467 -2.482800 -7.125000 0.000000 0.000000 -14.052600 7.791500 12.406800 -0.624052 8.343428 1.085769 68.930296 1.618616 43.026752 -30.206163 35.542393 -13.213295 2.314139 2.776936 -26.240152 -32.207458 -22.696161 15.896100 7.125000 0.000000 0.000000 -7.216300 -57.981100 2.300300 
8.145916 17.425451 -36.746211 -1.388968 -5.093703 8.495992 0.256418 -2.069810 -2.894536 -12.868575 2.994469 -36.992539 1.900742 14.829634 37.611671 -4.025596 13.347182 3.699446 0.299000 -3.516200 -9.719300 1.341055 -0.521559 1.394697 20.278828 8.960751 -8.896567 1.450963 -7.994828 23.655022 -1.929406 2.778497 -3.073229 -0.643600 5.132200 -14.286100 -0.449805 2.565905 -0.492937 0.768454 2.985137 -5.144955 4.391041 1.871206 5.105312 -10.754983 -4.646580 -17.004725 5.832845 -3.583665 6.327592 6.163300 -1.940000 10.105000 -0.630266 -6.306914 -1.063843 -82.775687 18.176426 45.899448 14.706384 -25.728714 -4.589947 0.176086 0.697145 -7.622184 7.010541 -21.665670 -2.576000 -7.125000 0.000000 0.000000 -13.861700 8.012800 12.165200 -0.661485 8.338352 1.115416 68.635873 2.359553 43.165308 -30.672476 35.833712 -13.496668 2.279504 2.756598 -26.292784 -31.807160 -22.523465 15.559600 7.125000 0.000000 0.000000 -6.717100 -57.694600 2.093800 
8.153354 17.423263 -36.548432 -1.467215 -5.516542 8.546951 0.211328 -2.166392 -3.077564 -12.597894 3.141911 -37.406815 1.297330 14.254621 35.377203 -4.235357 13.955224 4.494832 0.378400 -3.950700 -10.938100 1.390036 -0.607532 1.564843 20.260308 8.936254 -7.925927 1.607054 -7.628105 22.751243 -1.887977 2.658546 -3.006409 -0.699000 5.344400 -14.893500 -0.448384 2.802923 -0.509896 0.742938 3.280183 -5.125890 4.387072 2.046426 5.124278 -10.675893 -4.634089 -16.847716 5.804563 -3.604610 6.214505 6.105700 -1.936500 9.946800 -0.588493 -6.258120 -1.063297 -82.742958 18.994823 45.950953 14.923839 -26.049171 -4.692742 0.125126 0.675967 -8.532361 7.318910 -21.651108 -2.707300 -7.125000 0.000000 0.000000 -13.644500 8.015400 11.962000 -0.661399 8.341008 1.166251 68.218090 2.923791 43.654387 -31.246824 36.202326 -13.841098 2.287036 2.673469 -26.733193 -32.225936 -21.596175 15.165300 7.125000 0.000000 0.000000 -7.303500 -56.637300 2.091200 
8.165497 17.405323 -36.354700 -2.142626 -5.699814 8.688244 0.229702 -2.274096 -3.286411 -11.627048 3.024015 -37.726942 0.719553 13.641339 33.114434 -4.147421 13.861139 5.250283 0.362500 -3.867900 -10.705300 1.392267 -0.673222 1.721356 20.939690 8.849012 -6.986957 1.767236 -7.266565 21.854089 -1.954610 2.963132 -2.836493 -0.624900 5.058400 -14.075100 0.245022 2.949408 -0.417698 0.777223 3.430148 -5.139116 4.235699 2.166866 4.985418 -10.342475 -4.411611 -16.680281 5.804185 -3.408090 6.124482 6.013400 -1.817700 9.782700 -0.506229 -6.237043 -1.077616 -82.842010 19.831770 45.600546 15.006318 -26.204708 -4.747779 0.096880 0.697119 -9.162333 7.425825 -22.155350 -2.816700 -7.125000 0.000000 0.000000 -13.567700 7.490600 12.034500 -0.622245 8.371437 1.203643 67.783118 3.394474 44.221844 -31.793901 36.549160 -14.193316 2.290862 2.661774 -27.115140 -32.610472 -21.369095 15.211200 7.125000 0.000000 0.000000 -7.782200 -56.427200 2.189700 
8.175232 17.382788 -36.152546 -2.553302 -5.962358 8.821652 0.242739 -2.379423 -3.499525 -10.890525 2.909049 -38.038888 0.172055 13.018789 30.887818 -4.159558 14.030884 5.999824 0.416800 -4.144200 -11.482600 1.405284 -0.747777 1.881882 21.319132 8.827574 -5.991990 1.919029 -6.893533 20.940736 -2.027547 3.266860 -2.653209 -0.538900 4.703700 -13.065500 0.645261 3.113102 -0.484352 0.778346 3.613601 -5.132006 4.234884 2.293407 5.030869 -10.639286 -4.554954 -16.614194 5.836117 -3.514202 6.016660 6.145400 -1.875000 9.721000 -0.486598 -6.173052 -1.085221 -82.833778 20.770533 45.546041 15.362851 -26.687483 -4.931911 -0.008671 0.774714 -10.130338 8.681116 -23.691360 -3.566800 -7.125000 0.000000 0.000000 -12.768000 5.772100 11.720800 -0.662027 8.386746 1.241301 67.454458 3.995569 44.385192 -32.124358 36.736254 -14.387201 2.265519 2.631638 -27.080037 -32.173325 -21.109797 14.806600 7.125000 0.000000 0.000000 -7.260200 -56.028500 1.971500 
